<svg width="122" height="122" viewBox="0 0 122 122" fill="none" xmlns="http://www.w3.org/2000/svg">
<path d="M35.5833 91.5V86.4167C35.5833 79.6757 38.2612 73.2109 43.0277 68.4444C47.7943 63.6778 54.2591 61 61 61M61 61C67.7409 61 74.2058 63.6778 78.9723 68.4444C83.7389 73.2109 86.4167 79.6757 86.4167 86.4167V91.5M61 61C65.0446 61 68.9235 59.3933 71.7834 56.5334C74.6433 53.6735 76.25 49.7946 76.25 45.75C76.25 41.7054 74.6433 37.8266 71.7834 34.9666C68.9235 32.1067 65.0446 30.5 61 30.5C56.9555 30.5 53.0766 32.1067 50.2166 34.9666C47.3567 37.8266 45.75 41.7054 45.75 45.75C45.75 49.7946 47.3567 53.6735 50.2166 56.5334C53.0766 59.3933 56.9555 61 61 61ZM5.08334 91.5V86.4167C5.08334 82.3721 6.69003 78.4932 9.54996 75.6333C12.4099 72.7734 16.2888 71.1667 20.3333 71.1667M20.3333 71.1667C23.0297 71.1667 25.6156 70.0955 27.5223 68.1889C29.4289 66.2823 30.5 63.6964 30.5 61C30.5 58.3036 29.4289 55.7177 27.5223 53.8111C25.6156 51.9045 23.0297 50.8333 20.3333 50.8333C17.637 50.8333 15.051 51.9045 13.1444 53.8111C11.2378 55.7177 10.1667 58.3036 10.1667 61C10.1667 63.6964 11.2378 66.2823 13.1444 68.1889C15.051 70.0955 17.637 71.1667 20.3333 71.1667ZM116.917 91.5V86.4167C116.917 82.3721 115.31 78.4932 112.45 75.6333C109.59 72.7734 105.711 71.1667 101.667 71.1667M101.667 71.1667C104.363 71.1667 106.949 70.0955 108.856 68.1889C110.762 66.2823 111.833 63.6964 111.833 61C111.833 58.3036 110.762 55.7177 108.856 53.8111C106.949 51.9045 104.363 50.8333 101.667 50.8333C98.9703 50.8333 96.3844 51.9045 94.4778 53.8111C92.5711 55.7177 91.5 58.3036 91.5 61C91.5 63.6964 92.5711 66.2823 94.4778 68.1889C96.3844 70.0955 98.9703 71.1667 101.667 71.1667Z" stroke="#066581" stroke-width="4.5" stroke-linecap="round" stroke-linejoin="round"/>
</svg>
