<svg width="39" height="39" viewBox="0 0 39 39" fill="none" xmlns="http://www.w3.org/2000/svg">
<path d="M6.5 35.75C5.60625 35.75 4.84142 35.432 4.2055 34.7961C3.56958 34.1602 3.25108 33.3948 3.25 32.5V6.5C3.25 5.60625 3.5685 4.84142 4.2055 4.2055C4.8425 3.56958 5.60733 3.25108 6.5 3.25H19.5L29.25 13V19.9062H26V14.625H17.875V6.5H6.5V32.5H24.375V35.75H6.5ZM8.125 30.875C8.23333 29.5479 8.63958 28.3292 9.34375 27.2188C10.0479 26.1083 10.9687 25.2281 12.1062 24.5781L10.5625 21.8156C10.5625 21.7885 10.6167 21.5854 10.725 21.2063C10.8604 21.1521 10.9893 21.125 11.1117 21.125C11.2342 21.125 11.3219 21.1927 11.375 21.3281L12.9594 24.1719C13.501 23.9552 14.0427 23.7862 14.5844 23.6649C15.126 23.5435 15.6812 23.4823 16.25 23.4812C16.8188 23.4802 17.374 23.5414 17.9156 23.6649C18.4573 23.7884 18.999 23.9574 19.5406 24.1719L21.125 21.3281L21.7344 21.1656C21.8698 21.2198 21.951 21.3146 21.9781 21.45C22.0052 21.5854 21.9917 21.7073 21.9375 21.8156L20.3938 24.5781C21.5312 25.2281 22.4521 26.1083 23.1562 27.2188C23.8604 28.3292 24.2667 29.5479 24.375 30.875H8.125ZM12.5938 28.4375C12.8104 28.4375 13 28.3563 13.1625 28.1938C13.325 28.0312 13.4062 27.8417 13.4062 27.625C13.4062 27.4083 13.325 27.2188 13.1625 27.0562C13 26.8937 12.8104 26.8125 12.5938 26.8125C12.3771 26.8125 12.1875 26.8937 12.025 27.0562C11.8625 27.2188 11.7812 27.4083 11.7812 27.625C11.7812 27.8417 11.8625 28.0312 12.025 28.1938C12.1875 28.3563 12.3771 28.4375 12.5938 28.4375ZM19.9062 28.4375C20.1229 28.4375 20.3125 28.3563 20.475 28.1938C20.6375 28.0312 20.7188 27.8417 20.7188 27.625C20.7188 27.4083 20.6375 27.2188 20.475 27.0562C20.3125 26.8937 20.1229 26.8125 19.9062 26.8125C19.6896 26.8125 19.5 26.8937 19.3375 27.0562C19.175 27.2188 19.0938 27.4083 19.0938 27.625C19.0938 27.8417 19.175 28.0312 19.3375 28.1938C19.5 28.3563 19.6896 28.4375 19.9062 28.4375ZM32.5 35.75L26 29.25L28.275 26.9344L30.875 29.4937V22.75H34.125V29.4937L36.725 26.9344L39 29.25L32.5 35.75Z" fill="#5D9F84"/>
</svg>
