<svg width="24" height="24" viewBox="0 0 24 24" fill="none" xmlns="http://www.w3.org/2000/svg">
<path d="M7.00151 2C5.90056 1.99967 4.83028 2.36271 3.95675 3.03281C3.08321 3.7029 2.45526 4.64257 2.17034 5.70602C1.88542 6.76946 1.95946 7.89721 2.38096 8.91428C2.80247 9.93134 3.54787 10.7809 4.50151 11.331V17.843C4.50151 18.661 4.50151 19.069 4.65351 19.437C4.80551 19.804 5.09551 20.093 5.67351 20.672L7.00151 22L9.10951 19.892C9.20651 19.795 9.25551 19.746 9.29551 19.693C9.40146 19.5545 9.46938 19.3908 9.49252 19.218C9.50152 19.152 9.50151 19.083 9.50151 18.946C9.50151 18.835 9.50152 18.779 9.49552 18.725C9.47994 18.5833 9.43425 18.4466 9.36151 18.324C9.3222 18.2617 9.27946 18.2016 9.23352 18.144L8.00151 16.5L8.70151 15.567C9.09751 15.038 9.29652 14.774 9.39852 14.466C9.50152 14.158 9.50151 13.828 9.50151 13.166V11.331C10.4552 10.7809 11.2006 9.93134 11.6221 8.91428C12.0436 7.89721 12.1176 6.76946 11.8327 5.70602C11.5478 4.64257 10.9198 3.7029 10.0463 3.03281C9.17274 2.36271 8.10247 1.99967 7.00151 2Z" stroke="#F95150" stroke-width="1.5" stroke-linejoin="round"/>
<path d="M7.00146 7H7.01046" stroke="#F95150" stroke-width="2" stroke-linecap="round" stroke-linejoin="round"/>
<path d="M13.0015 14H19.0015C19.9335 14 20.3995 14 20.7665 14.152C21.0093 14.2525 21.2299 14.3999 21.4157 14.5857C21.6016 14.7716 21.749 14.9922 21.8495 15.235C22.0015 15.602 22.0015 16.068 22.0015 17C22.0015 17.932 22.0015 18.398 21.8495 18.765C21.749 19.0078 21.6016 19.2284 21.4157 19.4143C21.2299 19.6001 21.0093 19.7475 20.7665 19.848C20.3995 20 19.9335 20 19.0015 20H13.0015M15.0015 5H19.0015C19.9335 5 20.3995 5 20.7665 5.152C21.0093 5.25251 21.2299 5.3999 21.4157 5.58572C21.6016 5.77155 21.749 5.99218 21.8495 6.235C22.0015 6.602 22.0015 7.068 22.0015 8C22.0015 8.932 22.0015 9.398 21.8495 9.765C21.749 10.0078 21.6016 10.2284 21.4157 10.4143C21.2299 10.6001 21.0093 10.7475 20.7665 10.848C20.3995 11 19.9335 11 19.0015 11H15.0015" stroke="#F95150" stroke-width="1.5" stroke-linecap="round"/>
</svg>
