<svg width="61" height="61" viewBox="0 0 61 61" fill="none" xmlns="http://www.w3.org/2000/svg">
<path d="M30.5 35.8375C27.6406 35.8375 25.1625 33.55 25.1625 30.5C25.1625 27.6406 27.45 25.1625 30.5 25.1625C33.3594 25.1625 35.8375 27.45 35.8375 30.5C35.8375 33.3594 33.3594 35.8375 30.5 35.8375Z" fill="white"/>
<path fill-rule="evenodd" clip-rule="evenodd" d="M36.9813 17.5375H24.0188C22.4937 17.7281 21.7313 17.9187 21.1594 18.1094C20.3969 18.3 19.825 18.6812 19.2531 19.2531C18.8006 19.7056 18.5868 20.1582 18.3284 20.7051C18.2603 20.8493 18.1889 21.0004 18.1094 21.1594C18.0799 21.2478 18.0458 21.3409 18.0093 21.4406C17.8099 21.9854 17.5375 22.7297 17.5375 24.0187V36.9812C17.7281 38.5062 17.9187 39.2687 18.1094 39.8406C18.3 40.6031 18.6812 41.175 19.2531 41.7469C19.7056 42.1994 20.1582 42.4132 20.7051 42.6716C20.8494 42.7398 21.0002 42.811 21.1594 42.8906C21.2478 42.9201 21.3409 42.9542 21.4406 42.9907C21.9854 43.1901 22.7297 43.4625 24.0188 43.4625H36.9813C38.5062 43.2719 39.2687 43.0812 39.8406 42.8906C40.6031 42.7 41.175 42.3187 41.7469 41.7469C42.1994 41.2944 42.4132 40.8418 42.6716 40.2949C42.7398 40.1506 42.8111 39.9997 42.8906 39.8406C42.9201 39.7522 42.9542 39.6591 42.9907 39.5594C43.1901 39.0146 43.4625 38.2703 43.4625 36.9812V24.0187C43.2719 22.4937 43.0812 21.7312 42.8906 21.1594C42.7 20.3969 42.3187 19.825 41.7469 19.2531C41.2944 18.8006 40.8418 18.5868 40.2949 18.3284C40.1508 18.2603 39.9995 18.1888 39.8406 18.1094C39.7522 18.0799 39.6591 18.0458 39.5594 18.0093C39.0146 17.8099 38.2703 17.5375 36.9813 17.5375ZM30.5 22.3031C25.925 22.3031 22.3031 25.925 22.3031 30.5C22.3031 35.075 25.925 38.6969 30.5 38.6969C35.075 38.6969 38.6969 35.075 38.6969 30.5C38.6969 25.925 35.075 22.3031 30.5 22.3031ZM40.7938 22.1125C40.7938 23.1653 39.9403 24.0187 38.8875 24.0187C37.8347 24.0187 36.9813 23.1653 36.9813 22.1125C36.9813 21.0597 37.8347 20.2062 38.8875 20.2062C39.9403 20.2062 40.7938 21.0597 40.7938 22.1125Z" fill="white"/>
<path fill-rule="evenodd" clip-rule="evenodd" d="M0 30.5C0 13.6553 13.6553 0 30.5 0C47.3447 0 61 13.6553 61 30.5C61 47.3447 47.3447 61 30.5 61C13.6553 61 0 47.3447 0 30.5ZM24.0188 14.6781H36.9813C38.6969 14.8687 39.8406 15.0594 40.7938 15.4406C41.9375 16.0125 42.7 16.3937 43.6531 17.3469C44.6063 18.3 45.1781 19.2531 45.5594 20.2062C45.9406 21.1594 46.3219 22.3031 46.3219 24.0187V36.9812C46.1312 38.6969 45.9406 39.8406 45.5594 40.7937C44.9875 41.9375 44.6063 42.7 43.6531 43.6531C42.7 44.6062 41.7469 45.1781 40.7938 45.5594C39.8406 45.9406 38.6969 46.3219 36.9813 46.3219H24.0188C22.3031 46.1312 21.1594 45.9406 20.2063 45.5594C19.0625 44.9875 18.3 44.6062 17.3469 43.6531C16.3938 42.7 15.8219 41.7469 15.4406 40.7937C15.0594 39.8406 14.6781 38.6969 14.6781 36.9812V24.0187C14.8687 22.3031 15.0594 21.1594 15.4406 20.2062C16.0125 19.0625 16.3938 18.3 17.3469 17.3469C18.3 16.3937 19.2531 15.8219 20.2063 15.4406C21.1594 15.0594 22.3031 14.6781 24.0188 14.6781Z" fill="white"/>
</svg>
