<svg width="25" height="25" viewBox="0 0 25 25" fill="none" xmlns="http://www.w3.org/2000/svg">
<path d="M23.2983 4.5C23.2984 4.35316 23.2695 4.20775 23.2134 4.07208C23.1572 3.93641 23.0749 3.81314 22.971 3.70931C22.8672 3.60548 22.7439 3.52313 22.6083 3.46697C22.4726 3.41081 22.3272 3.38193 22.1803 3.382C22.1233 3.382 22.0686 3.3905 22.0136 3.39875V3.375H2.81234V3.382C2.6655 3.38193 2.52009 3.41081 2.38442 3.46697C2.24875 3.52313 2.12547 3.60548 2.02164 3.70931C1.91782 3.81314 1.83547 3.93641 1.7793 4.07208C1.72314 4.20775 1.69427 4.35316 1.69434 4.5V20.625H1.70684C1.76984 21.1828 2.23759 21.618 2.81209 21.618V21.625H22.0133V21.6012C22.0681 21.6095 22.1228 21.618 22.1801 21.618C22.7548 21.618 23.2226 21.183 23.2856 20.625H23.3051V4.5H23.2983ZM20.8161 19.1357H18.1008C18.0914 19.0974 18.0775 19.0603 18.0593 19.0252L18.0638 19.0228L12.3841 9.18525L12.3818 9.1865C12.3193 9.05632 12.2212 8.94644 12.099 8.86948C11.9767 8.79253 11.8353 8.75164 11.6908 8.7515C11.5424 8.75169 11.3973 8.79476 11.2728 8.87552C11.1483 8.95629 11.0497 9.07131 10.9891 9.20675L7.20934 15.7533L6.28384 14.1505L6.28259 14.1512C6.24959 14.0826 6.19791 14.0247 6.13348 13.9841C6.06905 13.9435 5.99449 13.9219 5.91834 13.9218C5.75359 13.9218 5.61234 14.0205 5.54859 14.1613L4.18359 16.5255V5.87125H20.8161V19.1357Z" fill="white"/>
<path d="M17.0304 12.171C18.4249 12.171 19.5554 11.0405 19.5554 9.646C19.5554 8.25148 18.4249 7.121 17.0304 7.121C15.6359 7.121 14.5054 8.25148 14.5054 9.646C14.5054 11.0405 15.6359 12.171 17.0304 12.171Z" fill="white"/>
</svg>
