<svg width="17" height="17" viewBox="0 0 17 17" fill="none" xmlns="http://www.w3.org/2000/svg">
<g clip-path="url(#clip0_114_1642)">
<path d="M2.48268 1.7815C2.11307 2.18575 1.98535 2.70175 2.00131 3.4375H16.9987C17.0147 2.70175 16.8869 2.185 16.5165 1.7815C15.7997 1 14.5064 1 11.9208 1H7.0784C4.49196 1 3.19954 1 2.48268 1.7815ZM2.34218 6.1675C2.25405 5.63349 2.17315 5.09844 2.0995 4.5625H2.86586L3.86371 5.5L2.44676 6.82975L2.34218 6.1675ZM2.79401 8.995L3.07261 10.7425L3.86291 10L2.79401 8.995ZM3.29294 12.1262L3.30012 12.1675C3.3592 12.544 3.41508 12.884 3.46776 13.1875H5.26071L6.25857 12.25L4.70989 10.795L3.29294 12.1262ZM8.94878 13.1875H10.0504L11.0483 12.25L9.4996 10.795L7.95093 12.25L8.94878 13.1875ZM13.7385 13.1875H15.5314C15.5841 12.884 15.64 12.544 15.6991 12.1675L15.7063 12.1262L14.2893 10.7957L12.7406 12.25L13.7385 13.1875ZM15.9274 10.7425L16.2068 8.995L15.1355 10L15.9274 10.7425ZM16.5516 6.82975L16.6578 6.1675C16.7544 5.56 16.839 5.029 16.9005 4.5625H16.1341L15.1355 5.5L16.5516 6.82975ZM12.4453 4.5625H11.3436L10.3458 5.5L11.8945 6.955L13.4431 5.5L12.4453 4.5625ZM7.65556 4.5625H6.55393L5.55608 5.5L7.10475 6.955L8.65342 5.5L7.65556 4.5625ZM3.71842 14.3125C3.87489 14.827 4.07845 15.1863 4.41133 15.4548C5.08509 16 6.06857 16 8.03635 16H10.9629C12.9306 16 13.9141 16 14.5879 15.4548C14.9208 15.1863 15.1243 14.827 15.2808 14.3125H3.71842ZM3.16122 7.75L4.70989 6.295L6.25857 7.75L4.70989 9.205L3.16122 7.75ZM5.55608 10L7.10475 8.545L8.65342 10L7.10475 11.455L5.55608 10ZM11.8945 11.455L10.3458 10L11.8945 8.545L13.4431 10L11.8945 11.455ZM9.4996 9.205L11.0483 7.75L9.4996 6.295L7.95093 7.75L9.4996 9.205ZM14.2893 9.205L12.7406 7.75L14.2893 6.295L15.838 7.75L14.2893 9.205Z" fill="white"/>
</g>
<defs>
<clipPath id="clip0_114_1642">
<rect width="17" height="17" fill="white"/>
</clipPath>
</defs>
</svg>
