<svg width="24" height="24" viewBox="0 0 24 24" fill="none" xmlns="http://www.w3.org/2000/svg">
<path d="M12.0823 7C13.6347 6.99994 15.1266 7.60157 16.2448 8.67847C17.3629 9.75537 18.0201 11.2237 18.0783 12.775L18.0823 13V20H19.0823C19.3372 20.0003 19.5823 20.0979 19.7677 20.2728C19.953 20.4478 20.0645 20.687 20.0795 20.9414C20.0944 21.1958 20.0116 21.4464 19.848 21.6418C19.6844 21.8373 19.4524 21.9629 19.1993 21.993L19.0823 22H5.08229C4.82741 21.9997 4.58226 21.9021 4.39692 21.7272C4.21158 21.5522 4.10005 21.313 4.08512 21.0586C4.07018 20.8042 4.15296 20.5536 4.31655 20.3582C4.48014 20.1627 4.71219 20.0371 4.96529 20.007L5.08229 20H6.08229V13C6.08229 11.4087 6.71443 9.88258 7.83965 8.75736C8.96487 7.63214 10.491 7 12.0823 7ZM12.0823 9C11.0214 9 10.004 9.42143 9.25386 10.1716C8.50372 10.9217 8.08229 11.9391 8.08229 13V20H16.0823V13C16.0823 11.9391 15.6609 10.9217 14.9107 10.1716C14.1606 9.42143 13.1432 9 12.0823 9ZM12.5973 11.643C12.8243 11.7796 12.9878 12.0007 13.0519 12.2578C13.116 12.5148 13.0755 12.7868 12.9393 13.014L12.3493 14H13.5643C14.3493 14 14.8343 14.857 14.4303 15.53L12.9403 18.015C12.8037 18.2426 12.5823 18.4065 12.3248 18.4709C12.0673 18.5352 11.7948 18.4946 11.5673 18.358C11.3397 18.2214 11.1758 18 11.1114 17.7425C11.0471 17.4851 11.0877 17.2126 11.2243 16.985L11.8163 16H10.6003C10.4215 16 10.2459 15.9526 10.0915 15.8626C9.93702 15.7725 9.80924 15.6431 9.72117 15.4875C9.63311 15.3319 9.58792 15.1557 9.59022 14.977C9.59253 14.7982 9.64224 14.6233 9.73429 14.47L11.2243 11.985C11.2919 11.8723 11.3811 11.7741 11.4868 11.6959C11.5924 11.6178 11.7124 11.5612 11.8399 11.5294C11.9674 11.4977 12.0999 11.4914 12.2299 11.5108C12.3599 11.5303 12.4847 11.5752 12.5973 11.643ZM5.71829 5.222L6.42529 5.929C6.60308 6.11832 6.70023 6.36939 6.6962 6.62908C6.69217 6.88876 6.58726 7.13669 6.40368 7.32041C6.2201 7.50412 5.97224 7.6092 5.71256 7.61342C5.45288 7.61763 5.20174 7.52066 5.01229 7.343L4.30529 6.636C4.20978 6.54375 4.1336 6.43341 4.08119 6.3114C4.02878 6.1894 4.00119 6.05818 4.00004 5.9254C3.99888 5.79262 4.02419 5.66094 4.07447 5.53805C4.12475 5.41515 4.199 5.3035 4.29289 5.20961C4.38679 5.11571 4.49844 5.04146 4.62133 4.99118C4.74423 4.9409 4.87591 4.9156 5.00869 4.91675C5.14147 4.9179 5.27269 4.94549 5.39469 4.9979C5.5167 5.05031 5.62604 5.12649 5.71829 5.222ZM19.8603 5.222C20.0325 5.39419 20.1359 5.62329 20.1512 5.86632C20.1665 6.10934 20.0925 6.3496 19.9433 6.542L19.8603 6.636L19.1533 7.343C18.9733 7.52235 18.7319 7.62647 18.4779 7.63423C18.224 7.64198 17.9766 7.55278 17.786 7.38475C17.5954 7.21672 17.476 6.98245 17.4519 6.72953C17.4278 6.4766 17.5009 6.22399 17.6563 6.023L17.7393 5.929L18.4463 5.222C18.6338 5.03453 18.8881 4.92921 19.1533 4.92921C19.4185 4.92921 19.6728 5.03453 19.8603 5.222ZM12.0823 2C12.3272 2.00003 12.5636 2.08996 12.7467 2.25272C12.9297 2.41547 13.0466 2.63975 13.0753 2.883L13.0823 3V4C13.082 4.25488 12.9844 4.50003 12.8094 4.68537C12.6345 4.8707 12.3953 4.98223 12.1409 4.99717C11.8865 5.01211 11.6359 4.92933 11.4405 4.76574C11.245 4.60214 11.1194 4.3701 11.0893 4.117L11.0823 4V3C11.0823 2.73478 11.1876 2.48043 11.3752 2.29289C11.5627 2.10536 11.8171 2 12.0823 2Z" fill="#F95150"/>
</svg>
